<?xml version="1.0" encoding="utf-8"?>
<!-- Generator: Adobe Illustrator 23.0.3, SVG Export Plug-In . SVG Version: 6.00 Build 0)  -->
<svg version="1.1" id="Layer_1" xmlns="http://www.w3.org/2000/svg" xmlns:xlink="http://www.w3.org/1999/xlink" x="0px" y="0px"
	 viewBox="0 0 614.6 205.37" style="enable-background:new 0 0 614.6 205.37;" xml:space="preserve">
<style type="text/css">
	.st0{fill:#9D237C;}
</style>
<g>
	<rect x="233.38" y="81.49" class="st0" width="21.11" height="67.38"/>
	<path class="st0" d="M211.46,83.17c-2.33,1.95-4.19,4.69-5.61,8.22l-0.75-9.9h-19.8v67.38h21.05v-44.22
		c0.75-1.49,1.89-2.65,3.43-3.46c1.54-0.81,3.51-1.21,5.92-1.21l6.78,0.05v-19.6c-0.97-0.13-1.93-0.2-2.86-0.2
		C216.5,80.24,213.78,81.22,211.46,83.17z"/>
	<path class="st0" d="M152.29,88.53c-1.99-2.66-4.25-4.7-6.76-6.13c-2.51-1.43-5.32-2.15-8.44-2.15c-8.35,0-14.81,3.22-19.4,9.65
		c-4.59,6.44-6.88,14.91-6.88,25.41v1.31c0,10.09,2.28,18.21,6.85,24.35c4.57,6.14,11,9.22,19.31,9.22c3.49,0,6.61-0.82,9.37-2.46
		c2.76-1.64,5.18-4.02,7.26-7.13l1.49,8.28h18.25V51.72h-21.05V88.53z M152.29,129.19c-1.08,1.58-2.46,2.77-4.14,3.58
		c-1.68,0.81-3.62,1.21-5.82,1.21c-3.78,0-6.47-1.53-8.06-4.58c-1.6-3.05-2.4-7.32-2.4-12.8v-1.31c0-5.69,0.83-10.25,2.49-13.7
		c1.66-3.45,4.36-5.17,8.1-5.17c2.16,0,4.07,0.48,5.73,1.43c1.66,0.96,3.03,2.33,4.11,4.11V129.19z"/>
	<path class="st0" d="M87.98,58.2H66.93v0.19L30.56,116.9l1.25,12.85h22.35c0-4.72,0-8.66,0-9.65c0-2.85,0.58-7.01,3.33-9.37
		c2.75-2.37,2.71-6.44,2.71-6.44V85.03h7.3v19.27c0,0-0.05,4.07,2.71,6.44c2.75,2.37,3.33,6.52,3.33,9.37c0,2.48,0,23.32,0,28.77
		h14.44v-19.12h9.15v-16.19h-9.15V58.2z"/>
	<rect x="233.38" y="51.72" class="st0" width="21.11" height="14.14"/>
	<rect x="409.69" y="51.72" class="st0" width="21.11" height="14.14"/>
	<path class="st0" d="M556.6,81.49l-1.43,8.47c-1.95-3.11-4.28-5.51-6.97-7.19c-2.7-1.68-5.83-2.52-9.4-2.52
		c-8.35,0-14.8,3.22-19.37,9.65c-4.57,6.44-6.85,14.91-6.85,25.41v1.31c0,10.09,2.27,18.21,6.82,24.35
		c4.55,6.14,10.97,9.22,19.27,9.22c3.24,0,6.12-0.63,8.66-1.9c2.53-1.27,4.75-3.12,6.66-5.57v3.42c0,4.03-1.14,7.2-3.42,9.53
		c-2.28,2.32-5.59,3.49-9.9,3.49c-3.57,0-6.75-0.32-9.53-0.97c-2.78-0.64-5.71-1.63-8.78-2.96l-3.42,15.57
		c3.45,1.62,7.08,2.91,10.9,3.86c3.82,0.95,7.47,1.43,10.96,1.43c10.46,0,18.79-2.72,24.97-8.16c6.19-5.44,9.28-12.66,9.28-21.67
		V81.49H556.6z M553.98,129.69c-1.08,1.45-2.44,2.53-4.08,3.24c-1.64,0.71-3.6,1.06-5.89,1.06c-3.78,0-6.47-1.53-8.06-4.58
		c-1.6-3.05-2.4-7.32-2.4-12.8v-1.31c0-5.69,0.83-10.25,2.49-13.7c1.66-3.45,4.36-5.17,8.1-5.17c2.24,0,4.18,0.44,5.82,1.31
		c1.64,0.87,2.98,2.1,4.02,3.67V129.69z"/>
	<path class="st0" d="M482.86,80.24c-3.98,0-7.6,0.94-10.84,2.83c-3.24,1.89-5.96,4.52-8.16,7.88l-0.81-9.47h-19.74v67.38h20.99
		v-48.45c1.08-1.25,2.38-2.22,3.89-2.93c1.52-0.71,3.25-1.06,5.2-1.06c3.11,0,5.47,0.8,7.07,2.4c1.6,1.6,2.4,4.33,2.4,8.19v41.85
		h21.05v-41.79c0-9.34-1.86-16.15-5.57-20.43C494.62,82.38,489.47,80.24,482.86,80.24z"/>
	<path class="st0" d="M306.56,80.24c-3.99,0-7.6,0.94-10.84,2.83c-3.24,1.89-5.96,4.52-8.16,7.88l-0.81-9.47h-19.74v67.38H288
		v-48.45c1.08-1.25,2.38-2.22,3.89-2.93c1.51-0.71,3.25-1.06,5.2-1.06c3.11,0,5.47,0.8,7.07,2.4c1.6,1.6,2.4,4.33,2.4,8.19v41.85
		h21.05v-41.79c0-9.34-1.86-16.15-5.57-20.43C318.31,82.38,313.16,80.24,306.56,80.24z"/>
	<polygon class="st0" points="401.4,81.49 377.3,81.49 362.92,106.21 360.11,106.21 360.11,51.72 339.06,51.72 339.06,148.87 
		360.11,148.87 360.11,122.09 363.66,122.09 380.73,148.87 404.7,148.87 380.48,111.94 	"/>
	<rect x="409.69" y="81.49" class="st0" width="21.11" height="67.38"/>
</g>
</svg>
